<?xml version="1.0" encoding="utf-8"?>
<!-- Generator: Adobe Illustrator 23.0.2, SVG Export Plug-In . SVG Version: 6.00 Build 0)  -->
<svg version="1.1" xmlns="http://www.w3.org/2000/svg" xmlns:xlink="http://www.w3.org/1999/xlink" x="0px" y="0px"
	 viewBox="0 0 32 32" style="enable-background:new 0 0 32 32;" xml:space="preserve">
<style type="text/css">
	.st0{fill:#EAEAEA;}
	.st1{fill:#254189;}
	.st2{fill:#CE2D21;}
</style>
<g id="图层_2">
	<circle class="st0" cx="15.9" cy="16" r="15.9"/>
</g>
<g id="图层_1">
	<g>
		<polygon class="st1" points="0.8,20.6 3.6,20.6 5.5,16 6.3,20.6 8.6,20.6 12.3,11.5 10,11.5 8.2,15.3 7.6,11.5 4.9,11.5 		"/>
		<polygon class="st1" points="14.6,11.5 11.1,20.6 12.9,20.6 16.1,12.9 18.9,20.6 21,20.6 17.4,11.5 		"/>
		<polygon class="st2" points="15.9,15.8 14,20.6 17.8,20.6 		"/>
		<polygon class="st1" points="19.8,11.4 23.4,20.6 25.8,20.6 26.6,16 28.5,20.6 31.2,20.5 27.2,11.4 24.5,11.4 23.9,15.2 
			22.1,11.4 		"/>
	</g>
</g>
</svg>
